<svg width="214" height="214" viewBox="0 0 214 214" fill="none" xmlns="http://www.w3.org/2000/svg">
<g clip-path="url(#clip0_215_3)">
<path d="M181.16 38.9657C167.517 32.7062 152.894 28.0963 137.602 25.457C137.325 25.4035 137.049 25.5372 136.897 25.7869C135.016 29.1307 132.929 33.4998 131.476 36.9238C115.025 34.4628 98.6627 34.4628 82.5503 36.9238C81.0969 33.4196 78.9301 29.1307 77.0487 25.7869C76.8971 25.5372 76.6207 25.4124 76.3443 25.457C61.0611 28.0874 46.4378 32.6973 32.7864 38.9657C32.6705 39.0103 32.5635 39.0995 32.5011 39.2065C4.7613 80.6512 -2.84462 121.079 0.882552 161.008C0.900385 161.204 1.00738 161.392 1.15897 161.508C19.4649 174.954 37.1912 183.113 54.5966 188.516C54.873 188.605 55.1672 188.498 55.3456 188.266C59.4651 182.649 63.1298 176.719 66.2774 170.487C66.4646 170.121 66.2863 169.684 65.9029 169.541C60.0803 167.33 54.5431 164.637 49.2109 161.588C48.7918 161.338 48.7561 160.741 49.1396 160.446C50.2631 159.608 51.3866 158.734 52.4566 157.852C52.6527 157.691 52.9202 157.656 53.1521 157.762C88.1767 173.75 126.09 173.75 160.696 157.762C160.928 157.656 161.195 157.682 161.4 157.852C162.47 158.734 163.594 159.617 164.726 160.455C165.119 160.741 165.092 161.347 164.664 161.597C159.332 164.709 153.794 167.348 147.963 169.541C147.58 169.684 147.419 170.13 147.597 170.496C150.807 176.719 154.481 182.649 158.52 188.266C158.69 188.507 158.993 188.605 159.269 188.525C176.755 183.113 194.49 174.954 212.787 161.516C212.948 161.4 213.046 161.222 213.064 161.026C217.522 114.864 205.591 74.7662 181.427 39.2243C181.383 39.0995 181.276 39.0103 181.16 38.9657ZM71.5115 136.701C60.9631 136.701 52.2782 127.018 52.2782 115.132C52.2782 103.246 60.7936 93.5625 71.5115 93.5625C82.3096 93.5625 90.9141 103.326 90.7447 115.132C90.7447 127.027 82.2204 136.701 71.5115 136.701ZM142.622 136.701C132.082 136.701 123.389 127.018 123.389 115.132C123.389 103.246 131.904 93.5625 142.622 93.5625C153.42 93.5625 162.025 103.326 161.855 115.132C161.855 127.027 153.42 136.701 142.622 136.701Z" fill="#D7D6D3"/>
</g>
<defs>
<clipPath id="clip0_215_3">
<rect width="214" height="214" fill="white"/>
</clipPath>
</defs>
</svg>
