<svg width="35" height="33" viewBox="0 0 35 33" fill="none" xmlns="http://www.w3.org/2000/svg">
<path d="M2.74809 17.0526L7.66877 20.6464L5.80002 26.4337C5.49802 27.3313 5.49419 28.3024 5.78911 29.2024C6.08403 30.1023 6.66189 30.8828 7.43656 31.4276C8.19795 31.9899 9.12063 32.2911 10.0671 32.2863C11.0136 32.2816 11.9332 31.9712 12.689 31.4013L17.5004 27.8601L22.3133 31.3972C23.0733 31.9562 23.991 32.2599 24.9345 32.2645C25.8779 32.2691 26.7986 31.9744 27.564 31.4228C28.3294 30.8712 28.9002 30.0911 29.1943 29.1946C29.4885 28.2981 29.4907 27.3315 29.2009 26.4337L27.3321 20.6464L32.2528 17.0526C33.0118 16.4977 33.576 15.717 33.8649 14.8223C34.1538 13.9275 34.1525 12.9643 33.8612 12.0703C33.57 11.1763 33.0036 10.3972 32.2431 9.84424C31.4826 9.29132 30.5668 8.99288 29.6266 8.99154H23.5822L21.748 3.27472C21.4595 2.37484 20.8928 1.58982 20.1294 1.03286C19.366 0.4759 18.4454 0.175781 17.5004 0.175781C16.5555 0.175781 15.6349 0.4759 14.8715 1.03286C14.1081 1.58982 13.5413 2.37484 13.2529 3.27472L11.4187 8.99154H5.37983C4.43957 8.99288 3.52378 9.29132 2.76327 9.84424C2.00276 10.3972 1.43643 11.1763 1.14517 12.0703C0.853914 12.9643 0.852625 13.9275 1.14149 14.8223C1.43035 15.717 1.9946 16.4977 2.75362 17.0526H2.74809Z" fill="#D7D6D3"/>
</svg>
